<svg width="128" height="128" viewBox="0 0 128 128" xmlns="http://www.w3.org/2000/svg">
  <defs>
    <linearGradient id="bg" x1="0%" y1="0%" x2="100%" y2="100%">
      <stop offset="0%" style="stop-color:#4285f4;stop-opacity:1" />
      <stop offset="100%" style="stop-color:#34a853;stop-opacity:1" />
    </linearGradient>
  </defs>
  
  <!-- Background -->
  <rect x="8" y="8" width="112" height="112" rx="16" fill="url(#bg)" stroke="#ffffff" stroke-width="2"/>
  
  <!-- Side panel representation -->
  <rect x="16" y="20" width="32" height="88" rx="4" fill="#ffffff" opacity="0.9"/>
  
  <!-- Browser window -->
  <rect x="56" y="20" width="56" height="88" rx="4" fill="#ffffff" opacity="0.8"/>
  
  <!-- Browser tabs -->
  <rect x="56" y="20" width="20" height="8" rx="2" fill="#e8eaed"/>
  <rect x="78" y="20" width="20" height="8" rx="2" fill="#e8eaed"/>
  <rect x="100" y="20" width="12" height="8" rx="2" fill="#e8eaed"/>
  
  <!-- Content area -->
  <rect x="60" y="32" width="48" height="72" rx="2" fill="#f8f9fa"/>
  
  <!-- Search bar -->
  <rect x="62" y="36" width="44" height="6" rx="3" fill="#e8eaed"/>
  
  <!-- Content lines -->
  <rect x="62" y="48" width="40" height="2" rx="1" fill="#dadce0"/>
  <rect x="62" y="52" width="36" height="2" rx="1" fill="#dadce0"/>
  <rect x="62" y="56" width="42" height="2" rx="1" fill="#dadce0"/>
  <rect x="62" y="60" width="38" height="2" rx="1" fill="#dadce0"/>
  
  <!-- Side panel content -->
  <rect x="20" y="28" width="24" height="3" rx="1.5" fill="#dadce0"/>
  <rect x="20" y="34" width="20" height="3" rx="1.5" fill="#dadce0"/>
  <rect x="20" y="40" width="22" height="3" rx="1.5" fill="#dadce0"/>
  <rect x="20" y="46" width="18" height="3" rx="1.5" fill="#dadce0"/>
  
  <!-- Search icon in side panel -->
  <circle cx="24" cy="60" r="3" fill="none" stroke="#4285f4" stroke-width="1.5"/>
  <line x1="26.5" y1="62.5" x2="28" y2="64" stroke="#4285f4" stroke-width="1.5" stroke-linecap="round"/>
</svg> 